G04 #@! TF.GenerationSoftware,KiCad,Pcbnew,(5.1.2)-2*
G04 #@! TF.CreationDate,2019-12-02T18:06:10-07:00*
G04 #@! TF.ProjectId,sparky,73706172-6b79-42e6-9b69-6361645f7063,rev?*
G04 #@! TF.SameCoordinates,Original*
G04 #@! TF.FileFunction,Copper,L2,Bot*
G04 #@! TF.FilePolarity,Positive*
%FSLAX46Y46*%
G04 Gerber Fmt 4.6, Leading zero omitted, Abs format (unit mm)*
G04 Created by KiCad (PCBNEW (5.1.2)-2) date 2019-12-02 18:06:10*
%MOMM*%
%LPD*%
G04 APERTURE LIST*
%ADD10R,1.600000X1.600000*%
%ADD11O,1.600000X1.600000*%
%ADD12R,0.850000X0.850000*%
%ADD13O,1.400000X1.400000*%
%ADD14C,1.400000*%
%ADD15R,1.500000X1.500000*%
%ADD16C,1.500000*%
%ADD17C,2.000000*%
%ADD18R,1.200000X1.200000*%
%ADD19C,1.200000*%
%ADD20C,0.250000*%
%ADD21C,1.600000*%
%ADD22C,2.500000*%
%ADD23C,1.300000*%
G04 APERTURE END LIST*
D10*
X73660000Y-66040000D03*
D11*
X88900000Y-114300000D03*
X73660000Y-68580000D03*
X88900000Y-111760000D03*
X73660000Y-71120000D03*
X88900000Y-109220000D03*
X73660000Y-73660000D03*
X88900000Y-106680000D03*
X73660000Y-76200000D03*
X88900000Y-104140000D03*
X73660000Y-78740000D03*
X88900000Y-101600000D03*
X73660000Y-81280000D03*
X88900000Y-99060000D03*
X73660000Y-83820000D03*
X88900000Y-96520000D03*
X73660000Y-86360000D03*
X88900000Y-93980000D03*
X73660000Y-88900000D03*
X88900000Y-91440000D03*
X73660000Y-91440000D03*
X88900000Y-88900000D03*
X73660000Y-93980000D03*
X88900000Y-86360000D03*
X73660000Y-96520000D03*
X88900000Y-83820000D03*
X73660000Y-99060000D03*
X88900000Y-81280000D03*
X73660000Y-101600000D03*
X88900000Y-78740000D03*
X73660000Y-104140000D03*
X88900000Y-76200000D03*
X73660000Y-106680000D03*
X88900000Y-73660000D03*
X73660000Y-109220000D03*
X88900000Y-71120000D03*
X73660000Y-111760000D03*
X88900000Y-68580000D03*
X73660000Y-114300000D03*
X88900000Y-66040000D03*
D12*
X171215000Y-15960000D03*
D13*
X78759000Y-39328000D03*
D14*
X78759000Y-31708000D03*
D15*
X109493000Y-43392000D03*
D16*
X104413000Y-43392000D03*
X106953000Y-43392000D03*
D15*
X95777000Y-43392000D03*
D16*
X90697000Y-43392000D03*
X93237000Y-43392000D03*
D15*
X81299000Y-43646000D03*
D16*
X76219000Y-43646000D03*
X78759000Y-43646000D03*
D12*
X112795000Y-47964000D03*
X100095000Y-43392000D03*
X86125000Y-43646000D03*
D13*
X106953000Y-39328000D03*
D14*
X106953000Y-31708000D03*
D13*
X93237000Y-39328000D03*
D14*
X93237000Y-31708000D03*
D12*
X106953000Y-28406000D03*
X93237000Y-28152000D03*
X78759000Y-28152000D03*
X62249000Y-37550000D03*
X122701000Y-25358000D03*
X48279000Y-17230000D03*
X171137000Y-33730000D03*
X130575000Y-15960000D03*
X130321000Y-33740000D03*
X186455000Y-33740000D03*
X186455000Y-15960000D03*
D17*
X68195000Y-60410000D03*
X68195000Y-55910000D03*
X74695000Y-60410000D03*
X74695000Y-55910000D03*
D12*
X65805000Y-70570000D03*
D13*
X64535000Y-88350000D03*
D14*
X64535000Y-83270000D03*
D13*
X60725000Y-80730000D03*
D14*
X60725000Y-88350000D03*
D12*
X64789000Y-102574000D03*
X68345000Y-87080000D03*
X68345000Y-84330000D03*
X68345000Y-82000000D03*
X68345000Y-79460000D03*
X95015000Y-66760000D03*
X95015000Y-69300000D03*
X95015000Y-71840000D03*
D10*
X199595001Y-115570000D03*
D11*
X207215001Y-135890000D03*
X199595001Y-118110000D03*
X207215001Y-133350000D03*
X199595001Y-120650000D03*
X207215001Y-130810000D03*
X199595001Y-123190000D03*
X207215001Y-128270000D03*
X199595001Y-125730000D03*
X207215001Y-125730000D03*
X199595001Y-128270000D03*
X207215001Y-123190000D03*
X199595001Y-130810000D03*
X207215001Y-120650000D03*
X199595001Y-133350000D03*
X207215001Y-118110000D03*
X199595001Y-135890000D03*
X207215001Y-115570000D03*
D10*
X127000000Y-41910000D03*
D11*
X139700000Y-59690000D03*
X127000000Y-44450000D03*
X139700000Y-57150000D03*
X127000000Y-46990000D03*
X139700000Y-54610000D03*
X127000000Y-49530000D03*
X139700000Y-52070000D03*
X127000000Y-52070000D03*
X139700000Y-49530000D03*
X127000000Y-54610000D03*
X139700000Y-46990000D03*
X127000000Y-57150000D03*
X139700000Y-44450000D03*
X127000000Y-59690000D03*
X139700000Y-41910000D03*
X139700000Y-78740000D03*
X127000000Y-96520000D03*
X139700000Y-81280000D03*
X127000000Y-93980000D03*
X139700000Y-83820000D03*
X127000000Y-91440000D03*
X139700000Y-86360000D03*
X127000000Y-88900000D03*
X139700000Y-88900000D03*
X127000000Y-86360000D03*
X139700000Y-91440000D03*
X127000000Y-83820000D03*
X139700000Y-93980000D03*
X127000000Y-81280000D03*
X139700000Y-96520000D03*
D10*
X127000000Y-78740000D03*
X127000000Y-118110000D03*
D11*
X139700000Y-135890000D03*
X127000000Y-120650000D03*
X139700000Y-133350000D03*
X127000000Y-123190000D03*
X139700000Y-130810000D03*
X127000000Y-125730000D03*
X139700000Y-128270000D03*
X127000000Y-128270000D03*
X139700000Y-125730000D03*
X127000000Y-130810000D03*
X139700000Y-123190000D03*
X127000000Y-133350000D03*
X139700000Y-120650000D03*
X127000000Y-135890000D03*
X139700000Y-118110000D03*
D18*
X116840000Y-41910000D03*
D19*
X118840000Y-41910000D03*
X50260000Y-24130000D03*
D18*
X48260000Y-24130000D03*
X116840000Y-78740000D03*
D19*
X118840000Y-78740000D03*
X118840000Y-118110000D03*
D18*
X116840000Y-118110000D03*
X62230000Y-24130000D03*
D19*
X60230000Y-24130000D03*
D12*
X62230000Y-29210000D03*
X62230000Y-33020000D03*
X68580000Y-68580000D03*
X68580000Y-71120000D03*
X93980000Y-83820000D03*
X170180000Y-113030000D03*
X48260000Y-60960000D03*
X48260000Y-73660000D03*
X48260000Y-35560000D03*
X48260000Y-29210000D03*
X48260000Y-48260000D03*
X48260000Y-41910000D03*
X48260000Y-67310000D03*
X48260000Y-54610000D03*
X48260000Y-80010000D03*
X40640000Y-29210000D03*
X40640000Y-35560000D03*
X40640000Y-54610000D03*
X40640000Y-60960000D03*
X40640000Y-67310000D03*
X40640000Y-73660000D03*
X40640000Y-80010000D03*
X40640000Y-86360000D03*
X40640000Y-41910000D03*
X40640000Y-48260000D03*
X69850000Y-101600000D03*
X143510000Y-44450000D03*
X143510000Y-41910000D03*
X93980000Y-104140000D03*
X93980000Y-101600000D03*
X99060000Y-111760000D03*
X144780000Y-59690000D03*
X185420000Y-71120000D03*
X121920000Y-46990000D03*
X121920000Y-49530000D03*
X121920000Y-52070000D03*
X121920000Y-54610000D03*
X93980000Y-99060000D03*
X93980000Y-96520000D03*
X93980000Y-93980000D03*
X66040000Y-106680000D03*
X69850000Y-106680000D03*
X99060000Y-114300000D03*
X93980000Y-114300000D03*
X69850000Y-104140000D03*
X143510000Y-81280000D03*
X143510000Y-120650000D03*
X69850000Y-111760000D03*
X144780000Y-96520000D03*
X144780000Y-135890000D03*
X69850000Y-114300000D03*
X143510000Y-78740000D03*
X170180000Y-128270000D03*
X170180000Y-123190000D03*
X170180000Y-118110000D03*
X93980000Y-81280000D03*
X121920000Y-83820000D03*
X121920000Y-86360000D03*
X121920000Y-88900000D03*
X121920000Y-91440000D03*
X93980000Y-111760000D03*
X97790000Y-99060000D03*
X185420000Y-63500000D03*
X185420000Y-68580000D03*
X143510000Y-118110000D03*
X123190000Y-123190000D03*
X123190000Y-125730000D03*
X123190000Y-128335001D03*
X123190000Y-130810000D03*
D13*
X100330000Y-78740000D03*
D14*
X107950000Y-78740000D03*
X147320000Y-46990000D03*
D13*
X154940000Y-46990000D03*
X154940000Y-49530000D03*
D14*
X147320000Y-49530000D03*
X60960000Y-66040000D03*
D13*
X68580000Y-66040000D03*
D14*
X123190000Y-110194000D03*
D13*
X115570000Y-110194000D03*
D14*
X148590000Y-83820000D03*
D13*
X156210000Y-83820000D03*
X115570000Y-106638000D03*
D14*
X123190000Y-106638000D03*
D13*
X156210000Y-86360000D03*
D14*
X148590000Y-86360000D03*
D13*
X166370000Y-138430000D03*
D14*
X166370000Y-146050000D03*
X171450000Y-146050000D03*
D13*
X171450000Y-138430000D03*
X176530000Y-138430000D03*
D14*
X176530000Y-146050000D03*
X148590000Y-123190000D03*
D13*
X156210000Y-123190000D03*
X156210000Y-125730000D03*
D14*
X148590000Y-125730000D03*
X181610000Y-146050000D03*
D13*
X181610000Y-138430000D03*
X100330000Y-74930000D03*
D14*
X100330000Y-69850000D03*
X106953000Y-113750000D03*
D13*
X112033000Y-113750000D03*
X111779000Y-102574000D03*
D14*
X106699000Y-102574000D03*
D11*
X199390000Y-60960000D03*
X191770000Y-81280000D03*
X199390000Y-63500000D03*
X191770000Y-78740000D03*
X199390000Y-66040000D03*
X191770000Y-76200000D03*
X199390000Y-68580000D03*
X191770000Y-73660000D03*
X199390000Y-71120000D03*
X191770000Y-71120000D03*
X199390000Y-73660000D03*
X191770000Y-68580000D03*
X199390000Y-76200000D03*
X191770000Y-66040000D03*
X199390000Y-78740000D03*
X191770000Y-63500000D03*
X199390000Y-81280000D03*
D10*
X191770000Y-60960000D03*
D12*
X185420000Y-60960000D03*
X185420000Y-66040000D03*
X177800000Y-60960000D03*
X172720000Y-66040000D03*
X185420000Y-73660000D03*
X109220000Y-135890000D03*
X66040000Y-29210000D03*
X111760000Y-96520000D03*
X66040000Y-33020000D03*
X58420000Y-41910000D03*
X123190000Y-81280000D03*
X53340000Y-54610000D03*
X58420000Y-48260000D03*
X123190000Y-44450000D03*
X53340000Y-41910000D03*
X53340000Y-60960000D03*
X124460000Y-120650000D03*
X204470000Y-60960000D03*
X53340000Y-48260000D03*
X165355001Y-83835001D03*
X213360000Y-115570000D03*
X196850000Y-146050000D03*
X40640000Y-99060000D03*
X40640000Y-107950000D03*
X187960000Y-81280000D03*
X196850000Y-128270000D03*
X41675000Y-113750000D03*
D20*
X165100000Y50800000D02*
X163830000Y50800000D01*
X60230000Y-24130000D02*
X54610000Y-24130000D01*
X54610000Y-24130000D02*
X50260000Y-24130000D01*
D21*
X40640000Y-29210000D02*
X40640000Y-35560000D01*
D20*
X40640000Y-35560000D02*
X40640000Y-41910000D01*
X40640000Y-60960000D02*
X40640000Y-67310000D01*
X40640000Y-67310000D02*
X40640000Y-73660000D01*
X40640000Y-73660000D02*
X40640000Y-80010000D01*
X40640000Y-80010000D02*
X40640000Y-86360000D01*
X40640000Y-41910000D02*
X40640000Y-48260000D01*
X83820000Y-88900000D02*
X88900000Y-88900000D01*
X73660000Y-93980000D02*
X78740000Y-93980000D01*
X40640000Y-93980000D02*
X40640000Y-86360000D01*
X139700000Y-128270000D02*
X139700000Y-130810000D01*
X139700000Y-130810000D02*
X139700000Y-133350000D01*
X139700000Y-52070000D02*
X139700000Y-54610000D01*
X139700000Y-54610000D02*
X139700000Y-57150000D01*
X139700000Y-88900000D02*
X139700000Y-91440000D01*
X139700000Y-91440000D02*
X139700000Y-93980000D01*
X127000000Y-41910000D02*
X118840000Y-41910000D01*
X127000000Y-78740000D02*
X118625002Y-78740000D01*
X118625002Y-78740000D02*
X118840000Y-78740000D01*
X181610000Y-146050000D02*
X176530000Y-146050000D01*
X176530000Y-146050000D02*
X171450000Y-146050000D01*
X171450000Y-146050000D02*
X166370000Y-146050000D01*
X133350000Y-133350000D02*
X133350000Y-118110000D01*
X139700000Y-133350000D02*
X133350000Y-133350000D01*
X133350000Y-133350000D02*
X127000000Y-133350000D01*
X133350000Y-118110000D02*
X127000000Y-118110000D01*
X133350000Y-118110000D02*
X133350000Y-93980000D01*
X133350000Y-93980000D02*
X139700000Y-93980000D01*
X133350000Y-93980000D02*
X127000000Y-93980000D01*
X139700000Y-57150000D02*
X133350000Y-57150000D01*
X133350000Y-57150000D02*
X133350000Y-41910000D01*
X133350000Y-57150000D02*
X127000000Y-57150000D01*
X127000000Y-78740000D02*
X133350000Y-78740000D01*
X133350000Y-78740000D02*
X133350000Y-57150000D01*
X133350000Y-93980000D02*
X133350000Y-78740000D01*
X127000000Y-41910000D02*
X133350000Y-41910000D01*
X133350000Y-146050000D02*
X133350000Y-133350000D01*
X119439999Y-78140001D02*
X119439999Y-71179999D01*
X118840000Y-78740000D02*
X119439999Y-78140001D01*
X119439999Y-71179999D02*
X119380000Y-71120000D01*
X196850000Y-146050000D02*
X196850000Y-137510000D01*
X196850000Y-137510000D02*
X198470000Y-135890000D01*
X187960000Y-81280000D02*
X190500000Y-81280000D01*
X40640000Y-93980000D02*
X40640000Y-99060000D01*
X40640000Y-99060000D02*
X40640000Y-107950000D01*
X40640000Y-54610000D02*
X40640000Y-60960000D01*
X123190000Y-109220000D02*
X123190000Y-115570000D01*
X123190000Y-115570000D02*
X123190000Y-118110000D01*
X123190000Y-118110000D02*
X127000000Y-118110000D01*
X118840000Y-118110000D02*
X123190000Y-118110000D01*
X104140000Y-146050000D02*
X133350000Y-146050000D01*
X40640000Y-48260000D02*
X40640000Y-54610000D01*
X40640000Y-93980000D02*
X73660000Y-93980000D01*
X166370000Y-146050000D02*
X133350000Y-146050000D01*
X181610000Y-146050000D02*
X184150000Y-146050000D01*
X196850000Y-146050000D02*
X184150000Y-146050000D01*
X187960000Y-90170000D02*
X187960000Y-81280000D01*
X212090000Y-90170000D02*
X187960000Y-90170000D01*
X40640000Y-107950000D02*
X40640000Y-110175000D01*
X41675000Y-111210000D02*
X41675000Y-113750000D01*
X40640000Y-110175000D02*
X41675000Y-111210000D01*
X70135000Y-55910000D02*
X70165000Y-55880000D01*
X68195000Y-55910000D02*
X70135000Y-55910000D01*
X70165000Y-55880000D02*
X68580000Y-55880000D01*
X68195000Y-55910000D02*
X72155000Y-51950000D01*
X72155000Y-51950000D02*
X76395000Y-51950000D01*
X80325000Y-55880000D02*
X70165000Y-55880000D01*
X197525000Y-146050000D02*
X198075000Y-145500000D01*
X196850000Y-146050000D02*
X197525000Y-146050000D01*
X198075000Y-145500000D02*
X213125000Y-145500000D01*
X219317500Y-139307500D02*
X219317500Y-97397500D01*
X213125000Y-145500000D02*
X219317500Y-139307500D01*
X219317500Y-97397500D02*
X212090000Y-90170000D01*
X107950000Y-60645000D02*
X103185000Y-55880000D01*
X107950000Y-78740000D02*
X107950000Y-60645000D01*
D22*
X186455000Y-15960000D02*
X184430000Y-15960000D01*
D21*
X168675000Y-15960000D02*
X130575000Y-15960000D01*
X54610000Y-18773000D02*
X54610000Y-24069000D01*
X57423000Y-15960000D02*
X54610000Y-18773000D01*
X130575000Y-15960000D02*
X57423000Y-15960000D01*
D20*
X54610000Y-24130000D02*
X54610000Y-24069000D01*
X54610000Y-24069000D02*
X54610000Y-20320000D01*
D21*
X57423000Y-15960000D02*
X57423000Y-15198000D01*
X57423000Y-15198000D02*
X55391000Y-13166000D01*
X55391000Y-13166000D02*
X42183000Y-13166000D01*
X40640000Y-14709000D02*
X40640000Y-21021000D01*
X42183000Y-13166000D02*
X40640000Y-14709000D01*
D20*
X40640000Y-20320000D02*
X40640000Y-21021000D01*
D21*
X40640000Y-21021000D02*
X40640000Y-29210000D01*
D23*
X103663001Y-55401999D02*
X103185000Y-55880000D01*
X103663001Y-44141999D02*
X103663001Y-55401999D01*
X104413000Y-43392000D02*
X103663001Y-44141999D01*
X89947001Y-54893999D02*
X88961000Y-55880000D01*
X89947001Y-44141999D02*
X89947001Y-54893999D01*
X90697000Y-43392000D02*
X89947001Y-44141999D01*
D20*
X103185000Y-55880000D02*
X88961000Y-55880000D01*
X88961000Y-55880000D02*
X80325000Y-55880000D01*
D23*
X75469001Y-51024001D02*
X76727000Y-52282000D01*
X75469001Y-44395999D02*
X75469001Y-51024001D01*
X76219000Y-43646000D02*
X75469001Y-44395999D01*
D20*
X76395000Y-51950000D02*
X76727000Y-52282000D01*
X76727000Y-52282000D02*
X80325000Y-55880000D01*
X123190000Y-106638000D02*
X123190000Y-107673000D01*
X123190000Y-106680000D02*
X123190000Y-107673000D01*
X123190000Y-107673000D02*
X123190000Y-109220000D01*
X123190000Y-110194000D02*
X123190000Y-109220000D01*
D21*
X168675000Y-15960000D02*
X171215000Y-15960000D01*
X171215000Y-15960000D02*
X184430000Y-15960000D01*
D20*
X104140000Y-146050000D02*
X104140000Y-145989000D01*
X104140000Y-145989000D02*
X82569000Y-124418000D01*
X82569000Y-90151000D02*
X82580500Y-90139500D01*
X82569000Y-124418000D02*
X82569000Y-90151000D01*
X78740000Y-93980000D02*
X82580500Y-90139500D01*
X82580500Y-90139500D02*
X83820000Y-88900000D01*
X73660000Y-111760000D02*
X69850000Y-111760000D01*
X144780000Y-59690000D02*
X139700000Y-59690000D01*
X48260000Y-24130000D02*
X48260000Y-29210000D01*
X48260000Y-29210000D02*
X48260000Y-35560000D01*
X48260000Y-35560000D02*
X48260000Y-41910000D01*
X48260000Y-41910000D02*
X48260000Y-48260000D01*
X48260000Y-54610000D02*
X48260000Y-60960000D01*
X48260000Y-60960000D02*
X48260000Y-67310000D01*
X48260000Y-67310000D02*
X48260000Y-73660000D01*
X48260000Y-73660000D02*
X48260000Y-80010000D01*
X48260000Y-80010000D02*
X48260000Y-87630000D01*
X48260000Y-87630000D02*
X53340000Y-87630000D01*
X73660000Y-91440000D02*
X76200000Y-91440000D01*
X81280000Y-86360000D02*
X88900000Y-86360000D01*
X76200000Y-91440000D02*
X81280000Y-86360000D01*
X73660000Y-91440000D02*
X59690000Y-91440000D01*
X59690000Y-91440000D02*
X60960000Y-91440000D01*
X156210000Y-123190000D02*
X156210000Y-125730000D01*
X60960000Y-66040000D02*
X58420000Y-66040000D01*
X156210000Y-86360000D02*
X156210000Y-83820000D01*
X156210000Y-50800000D02*
X154940000Y-49530000D01*
X154940000Y-46990000D02*
X154940000Y-49530000D01*
X100330000Y-69850000D02*
X100330000Y-60960000D01*
X100330000Y-60960000D02*
X81280000Y-60960000D01*
X81280000Y-60960000D02*
X81280000Y-86360000D01*
X88900000Y-86360000D02*
X100330000Y-86360000D01*
X213360000Y-115570000D02*
X208340002Y-115570000D01*
X204470000Y-60960000D02*
X201930000Y-60960000D01*
X201930000Y-60960000D02*
X200660000Y-60960000D01*
X156210000Y-58420000D02*
X156210000Y-50800000D01*
X156210000Y-83820000D02*
X156210000Y-58420000D01*
X213360000Y-115570000D02*
X213360000Y-101600000D01*
X48260000Y-41910000D02*
X53340000Y-41910000D01*
X48260000Y-48260000D02*
X53340000Y-48260000D01*
X58420000Y-41910000D02*
X53340000Y-41910000D01*
X58420000Y-48260000D02*
X53340000Y-48260000D01*
X53340000Y-54610000D02*
X48260000Y-54610000D01*
X53340000Y-60960000D02*
X48260000Y-60960000D01*
X156225001Y-83835001D02*
X156210000Y-83820000D01*
X165355001Y-83835001D02*
X156225001Y-83835001D01*
X127000000Y-81280000D02*
X123190000Y-81280000D01*
X127000000Y-44450000D02*
X123190000Y-44450000D01*
X127000000Y-120650000D02*
X124460000Y-120650000D01*
X156210000Y-48260000D02*
X154940000Y-46990000D01*
X48260000Y-48260000D02*
X48260000Y-54610000D01*
X59690000Y-91440000D02*
X58420000Y-91440000D01*
X53340000Y-87630000D02*
X58420000Y-87630000D01*
X58420000Y-87630000D02*
X58420000Y-91440000D01*
X213360000Y-101600000D02*
X156210000Y-101600000D01*
X156210000Y-101600000D02*
X156210000Y-86360000D01*
X156210000Y-123190000D02*
X156210000Y-101600000D01*
X64535000Y-83270000D02*
X64535000Y-76920000D01*
X61760000Y-74145000D02*
X58420000Y-74145000D01*
X58420000Y-74145000D02*
X58420000Y-87630000D01*
X64535000Y-76920000D02*
X61760000Y-74145000D01*
X58420000Y-66040000D02*
X58420000Y-74145000D01*
X156210000Y-48260000D02*
X198435000Y-48260000D01*
X201930000Y-51755000D02*
X201930000Y-60960000D01*
X198435000Y-48260000D02*
X201930000Y-51755000D01*
D21*
X46060000Y-24130000D02*
X48260000Y-24130000D01*
X45993000Y-24063000D02*
X46060000Y-24130000D01*
X45993000Y-17491000D02*
X45993000Y-24063000D01*
X46254000Y-17230000D02*
X45993000Y-17491000D01*
X48279000Y-17230000D02*
X46254000Y-17230000D01*
D20*
X104001500Y-101445551D02*
X104001500Y-90031500D01*
X100330000Y-86360000D02*
X104001500Y-90031500D01*
X104001500Y-90031500D02*
X104140000Y-90170000D01*
X105129949Y-102574000D02*
X104001500Y-101445551D01*
X106699000Y-102574000D02*
X105129949Y-102574000D01*
X106953000Y-117560000D02*
X106953000Y-113750000D01*
X113557000Y-117560000D02*
X106953000Y-117560000D01*
X106699000Y-100034000D02*
X106953000Y-99780000D01*
X106699000Y-102574000D02*
X106699000Y-100034000D01*
X106953000Y-99780000D02*
X118637000Y-99780000D01*
X118637000Y-99780000D02*
X119399000Y-100542000D01*
X119399000Y-100542000D02*
X119399000Y-111718000D01*
X119399000Y-111718000D02*
X113557000Y-117560000D01*
X200660000Y-60960000D02*
X200515001Y-60960000D01*
X200515001Y-60960000D02*
X200515001Y-60918000D01*
X127000000Y-46990000D02*
X121920000Y-46990000D01*
X127000000Y-49530000D02*
X121920000Y-49530000D01*
X127000000Y-52070000D02*
X121920000Y-52070000D01*
X121920000Y-54610000D02*
X127000000Y-54610000D01*
X147320000Y-46990000D02*
X139700000Y-46990000D01*
X73660000Y-104140000D02*
X69850000Y-104140000D01*
X143510000Y-44450000D02*
X139700000Y-44450000D01*
X64789000Y-103249000D02*
X64789000Y-102574000D01*
X65680000Y-104140000D02*
X64789000Y-103249000D01*
X69850000Y-104140000D02*
X65680000Y-104140000D01*
X62230000Y-24130000D02*
X62230000Y-29210000D01*
X116840000Y-41910000D02*
X116840000Y-59690000D01*
X116840000Y-59690000D02*
X127000000Y-59690000D01*
X116840000Y-78740000D02*
X116840000Y-96520000D01*
X116840000Y-96520000D02*
X125730000Y-96520000D01*
X125730000Y-96520000D02*
X127000000Y-96520000D01*
X116840000Y-135890000D02*
X116840000Y-118110000D01*
X127000000Y-135890000D02*
X116840000Y-135890000D01*
X66040000Y-29210000D02*
X62230000Y-29210000D01*
X62230000Y-29210000D02*
X62230000Y-33020000D01*
X62230000Y-33020000D02*
X66040000Y-33020000D01*
X111760000Y-96520000D02*
X116840000Y-96520000D01*
X109220000Y-135890000D02*
X116840000Y-135890000D01*
X63080000Y-24130000D02*
X63630000Y-23580000D01*
X62230000Y-24130000D02*
X63080000Y-24130000D01*
X63630000Y-23580000D02*
X111525000Y-23580000D01*
X116840000Y-28895000D02*
X116840000Y-41910000D01*
X111525000Y-23580000D02*
X116840000Y-28895000D01*
D21*
X171147000Y-33740000D02*
X171137000Y-33730000D01*
X62230000Y-19281000D02*
X62230000Y-24130000D01*
X62249000Y-19262000D02*
X62230000Y-19281000D01*
X126257000Y-19262000D02*
X62249000Y-19262000D01*
X168597000Y-33730000D02*
X140725000Y-33730000D01*
X140725000Y-33730000D02*
X126257000Y-19262000D01*
D20*
X62249000Y-33039000D02*
X62230000Y-33020000D01*
X62249000Y-37550000D02*
X62249000Y-33039000D01*
D21*
X168597000Y-33730000D02*
X171137000Y-33730000D01*
D20*
X186445000Y-33730000D02*
X186455000Y-33740000D01*
D21*
X171137000Y-33730000D02*
X186445000Y-33730000D01*
D20*
X73660000Y-114300000D02*
X69850000Y-114300000D01*
X143510000Y-41910000D02*
X139700000Y-41910000D01*
X93980000Y-111760000D02*
X88900000Y-111760000D01*
X99060000Y-111760000D02*
X93980000Y-111760000D01*
X143510000Y-78740000D02*
X139700000Y-78740000D01*
X191770000Y-71120000D02*
X185420000Y-71120000D01*
X148590000Y-83820000D02*
X139700000Y-83820000D01*
X127000000Y-91440000D02*
X121920000Y-91440000D01*
X148590000Y-86360000D02*
X139700000Y-86360000D01*
X127000000Y-88900000D02*
X121920000Y-88900000D01*
X127000000Y-86360000D02*
X121920000Y-86360000D01*
X127000000Y-83820000D02*
X121920000Y-83820000D01*
X99060000Y-114300000D02*
X93980000Y-114300000D01*
X93980000Y-114300000D02*
X88900000Y-114300000D01*
X144780000Y-135890000D02*
X139700000Y-135890000D01*
X144780000Y-96520000D02*
X139700000Y-96520000D01*
X127000000Y-123190000D02*
X123190000Y-123190000D01*
X127000000Y-125730000D02*
X123190000Y-125730000D01*
X122950002Y-128270000D02*
X122885001Y-128335001D01*
X123255001Y-128270000D02*
X123190000Y-128335001D01*
X127000000Y-128270000D02*
X123255001Y-128270000D01*
X148590000Y-125730000D02*
X139700000Y-125730000D01*
X127000000Y-130810000D02*
X123190000Y-130810000D01*
X148590000Y-123190000D02*
X139700000Y-123190000D01*
X143510000Y-118110000D02*
X139700000Y-118110000D01*
X191770000Y-73660000D02*
X185420000Y-73660000D01*
X73660000Y-68580000D02*
X68580000Y-68580000D01*
X73660000Y-71120000D02*
X68580000Y-71120000D01*
X66355000Y-71120000D02*
X65805000Y-70570000D01*
X68580000Y-71120000D02*
X66355000Y-71120000D01*
X88900000Y-71120000D02*
X93025000Y-71120000D01*
X93745000Y-71840000D02*
X95015000Y-71840000D01*
X93025000Y-71120000D02*
X93745000Y-71840000D01*
X88900000Y-68580000D02*
X93025000Y-68580000D01*
X93745000Y-69300000D02*
X95015000Y-69300000D01*
X93025000Y-68580000D02*
X93745000Y-69300000D01*
X88900000Y-66040000D02*
X93025000Y-66040000D01*
X93745000Y-66760000D02*
X95015000Y-66760000D01*
X93025000Y-66040000D02*
X93745000Y-66760000D01*
X93980000Y-83820000D02*
X88900000Y-83820000D01*
X196850000Y-128270000D02*
X199595001Y-128270000D01*
X93980000Y-81280000D02*
X88900000Y-81280000D01*
X167640000Y-113030000D02*
X160020000Y-120650000D01*
X170180000Y-113030000D02*
X167640000Y-113030000D01*
X160020000Y-120650000D02*
X160020000Y-138430000D01*
X166370000Y-138430000D02*
X160020000Y-138430000D01*
X73660000Y-83820000D02*
X71605000Y-83820000D01*
X71095000Y-84330000D02*
X68345000Y-84330000D01*
X71605000Y-83820000D02*
X71095000Y-84330000D01*
X93980000Y-104140000D02*
X88900000Y-104140000D01*
X93980000Y-101600000D02*
X88900000Y-101600000D01*
X93980000Y-99060000D02*
X88900000Y-99060000D01*
X97790000Y-99060000D02*
X93980000Y-99060000D01*
X93980000Y-96520000D02*
X88900000Y-96520000D01*
X191770000Y-60960000D02*
X185420000Y-60960000D01*
X185420000Y-60960000D02*
X177800000Y-60960000D01*
X93980000Y-93980000D02*
X88900000Y-93980000D01*
X191770000Y-66040000D02*
X185420000Y-66040000D01*
X185420000Y-66040000D02*
X172720000Y-66040000D01*
X199595001Y-111965001D02*
X199595001Y-115570000D01*
X199390000Y-111760000D02*
X199595001Y-111965001D01*
X180340000Y-111760000D02*
X199390000Y-111760000D01*
X170180000Y-128270000D02*
X172720000Y-128270000D01*
X181610000Y-115570000D02*
X181610000Y-138430000D01*
X199595001Y-115570000D02*
X181610000Y-115570000D01*
X180340000Y-111760000D02*
X177800000Y-111760000D01*
X177800000Y-111760000D02*
X177800000Y-128270000D01*
X177800000Y-128270000D02*
X172720000Y-128270000D01*
X170180000Y-123190000D02*
X166370000Y-123190000D01*
X166370000Y-123190000D02*
X163830000Y-125730000D01*
X163830000Y-125730000D02*
X163830000Y-134620000D01*
X176530000Y-139700000D02*
X176530000Y-138430000D01*
X177800000Y-140970000D02*
X176530000Y-139700000D01*
X187960000Y-118110000D02*
X187960000Y-138430000D01*
X185420000Y-140970000D02*
X177800000Y-140970000D01*
X187960000Y-138430000D02*
X185420000Y-140970000D01*
X199595001Y-118110000D02*
X187960000Y-118110000D01*
X163830000Y-134620000D02*
X176530000Y-134620000D01*
X176530000Y-134620000D02*
X176530000Y-138430000D01*
X204470000Y-125730000D02*
X199595001Y-125730000D01*
X204470000Y-106680000D02*
X204470000Y-125730000D01*
X170180000Y-118110000D02*
X172720000Y-118110000D01*
X171450000Y-140970000D02*
X171450000Y-138430000D01*
X173990000Y-143510000D02*
X171450000Y-140970000D01*
X193040000Y-125730000D02*
X193040000Y-143510000D01*
X199595001Y-125730000D02*
X193040000Y-125730000D01*
X193040000Y-143510000D02*
X173990000Y-143510000D01*
X173990000Y-118110000D02*
X170180000Y-118110000D01*
X173990000Y-106680000D02*
X173990000Y-118110000D01*
X213360000Y-106680000D02*
X173990000Y-106680000D01*
X191770000Y-63500000D02*
X185420000Y-63500000D01*
X191770000Y-68580000D02*
X185420000Y-68580000D01*
X93980000Y-78740000D02*
X88900000Y-78740000D01*
X100330000Y-78740000D02*
X93980000Y-78740000D01*
X100330000Y-74930000D02*
X100330000Y-78740000D01*
X73660000Y-66040000D02*
X68580000Y-66040000D01*
X68580000Y-60795000D02*
X68195000Y-60410000D01*
X68580000Y-61445000D02*
X68580000Y-60795000D01*
X68580000Y-66040000D02*
X68580000Y-61445000D01*
X68580000Y-61445000D02*
X68580000Y-60960000D01*
X199595001Y-121781370D02*
X199595001Y-123190000D01*
X199595001Y-120650000D02*
X199595001Y-121781370D01*
X73660000Y-78740000D02*
X71605000Y-78740000D01*
X70885000Y-79460000D02*
X68345000Y-79460000D01*
X71605000Y-78740000D02*
X70885000Y-79460000D01*
X73660000Y-106680000D02*
X69850000Y-106680000D01*
X69850000Y-106680000D02*
X66040000Y-106680000D01*
X143510000Y-81280000D02*
X139700000Y-81280000D01*
X143510000Y-120650000D02*
X139700000Y-120650000D01*
X73660000Y-101600000D02*
X69850000Y-101600000D01*
X73660000Y-101600000D02*
X75499000Y-101600000D01*
X75499000Y-101600000D02*
X76981000Y-103082000D01*
X76981000Y-103082000D02*
X76981000Y-105876000D01*
X76177000Y-106680000D02*
X73660000Y-106680000D01*
X76981000Y-105876000D02*
X76177000Y-106680000D01*
X73660000Y-81280000D02*
X71605000Y-81280000D01*
X70885000Y-82000000D02*
X68345000Y-82000000D01*
X71605000Y-81280000D02*
X70885000Y-82000000D01*
X73660000Y-86360000D02*
X71605000Y-86360000D01*
X70885000Y-87080000D02*
X68345000Y-87080000D01*
X71605000Y-86360000D02*
X70885000Y-87080000D01*
X65805000Y-89620000D02*
X64535000Y-88350000D01*
X70885000Y-89620000D02*
X65805000Y-89620000D01*
X71605000Y-88900000D02*
X70885000Y-89620000D01*
X73660000Y-88900000D02*
X71605000Y-88900000D01*
X61995000Y-89620000D02*
X60725000Y-88350000D01*
X65805000Y-89620000D02*
X61995000Y-89620000D01*
D21*
X130321000Y-32978000D02*
X122701000Y-25358000D01*
X130321000Y-33740000D02*
X130321000Y-32978000D01*
D23*
X78759000Y-28152000D02*
X78759000Y-31708000D01*
X86125000Y-43646000D02*
X81299000Y-43646000D01*
X93237000Y-28152000D02*
X93237000Y-31708000D01*
X100095000Y-43392000D02*
X95777000Y-43392000D01*
X106953000Y-28406000D02*
X106953000Y-31708000D01*
X109493000Y-44662000D02*
X112795000Y-47964000D01*
X109493000Y-43392000D02*
X109493000Y-44662000D01*
X78759000Y-39328000D02*
X78759000Y-43646000D01*
X93237000Y-39328000D02*
X93237000Y-43392000D01*
X106953000Y-39328000D02*
X106953000Y-43392000D01*
D20*
X115570000Y-110213000D02*
X115570000Y-110194000D01*
X113557000Y-112226000D02*
X113557000Y-111718000D01*
X113557000Y-112226000D02*
X115570000Y-110213000D01*
X112033000Y-113750000D02*
X113557000Y-112226000D01*
X111059000Y-109220000D02*
X88900000Y-109220000D01*
X113557000Y-111718000D02*
X111059000Y-109220000D01*
X111779000Y-102847000D02*
X111779000Y-102574000D01*
X113547500Y-104615500D02*
X113293500Y-104615500D01*
X113547500Y-104615500D02*
X111779000Y-102847000D01*
X115570000Y-106638000D02*
X113547500Y-104615500D01*
X111229000Y-106680000D02*
X88900000Y-106680000D01*
X113293500Y-104615500D02*
X111229000Y-106680000D01*
M02*
